<svg xmlns="http://www.w3.org/2000/svg" width="560" height="380" viewBox="0 0 560 380" fill="none">
  <rect x="20" y="20" width="520" height="340" rx="16" fill="#ffffff" stroke="#e2e8f0"/>
  <rect x="40" y="48" width="140" height="16" rx="4" fill="#e2e8f0"/>
  <rect x="40" y="80" width="200" height="12" rx="4" fill="#e2e8f0"/>
  <rect x="40" y="104" width="160" height="12" rx="4" fill="#e2e8f0"/>
  <rect x="40" y="128" width="180" height="12" rx="4" fill="#e2e8f0"/>
  <!-- Spark bars -->
  <g transform="translate(320,80)">
    <rect x="0" y="90" width="20" height="30" rx="4" fill="#0ea5a1"/>
    <rect x="30" y="70" width="20" height="50" rx="4" fill="#0ea5a1"/>
    <rect x="60" y="55" width="20" height="65" rx="4" fill="#0ea5a1"/>
    <rect x="90" y="35" width="20" height="85" rx="4" fill="#0ea5a1"/>
    <rect x="120" y="15" width="20" height="105" rx="4" fill="#0ea5a1"/>
  </g>
  <rect x="320" y="48" width="180" height="16" rx="4" fill="#e2e8f0"/>
  <rect x="320" y="168" width="200" height="12" rx="4" fill="#e2e8f0"/>
</svg>
